<?xml version="1.0" encoding="UTF-8"?><svg id="Layer_2" xmlns="http://www.w3.org/2000/svg" width="40" height="40" viewBox="0 0 40 40"><defs><style>.cls-1{fill:none;stroke-linejoin:round;}.cls-1,.cls-2{stroke:#3f4b7f;}.cls-2{fill:#3f4b7f;}</style></defs><rect class="cls-1" x=".5" y=".5" width="39" height="39" rx="5.4" ry="5.4"/><path class="cls-2" d="M10.54,23l-1.67,5.08h-2.17l5.5-16.18h2.51l5.53,16.18h-2.23l-1.73-5.08h-5.73ZM15.85,21.37l-1.6-4.66c-.35-1.06-.59-2.02-.83-2.95h-.06c-.23.95-.48,1.93-.8,2.92l-1.59,4.68h4.89Z"/><path class="cls-2" d="M23.44,22.66c.04,2.85,1.85,4.03,3.97,4.03,1.51,0,2.43-.27,3.22-.59l.37,1.5c-.74.34-2.03.74-3.87.74-3.57,0-5.71-2.38-5.71-5.86s2.07-6.27,5.46-6.27c3.79,0,4.78,3.32,4.78,5.46,0,.44-.03.76-.07.99h-8.14ZM29.62,21.15c.02-1.33-.54-3.42-2.91-3.42-2.15,0-3.07,1.95-3.24,3.42h6.15Z"/></svg>