<?xml version="1.0" encoding="UTF-8"?><svg id="Layer_1" xmlns="http://www.w3.org/2000/svg" width="1303.62" height="432.54" xmlns:xlink="http://www.w3.org/1999/xlink" viewBox="0 0 1303.62 432.54"><defs><style>.cls-1{fill:url(#linear-gradient);}</style><linearGradient id="linear-gradient" x1="650.54" y1="520.77" x2="654.19" y2="-653.77" gradientTransform="translate(1303.62 432.54) rotate(-180)" gradientUnits="userSpaceOnUse"><stop offset=".07" stop-color="#3f4b7f"/><stop offset=".42" stop-color="#c1c4e3"/></linearGradient></defs><path class="cls-1" d="M1303.62,305.04l-.15,127.08L.12,432.54l-.12-174.19c29.82,19.29,72.08,16.7,99.33-6.07,27.25-22.78,37.28-63.91,23.59-96.68-12.9-30.86-44.13-54.35-46.45-87.71-2.1-30.21,32.05-59.85,58.99-46.02,22.26,11.42,26.02,40.74,31.95,65.05,7,28.74,20.59,55.43,35.5,80.98,24.43,41.88,53.44,82.23,92.66,110.73,39.23,28.49,90.13,43.88,137.13,32,20.1-5.08,40.66-16.96,46.71-36.79,8.9-29.18-17.22-56.94-42.92-73.37-25.71-16.44-56.3-32.74-63.65-62.35-7.18-28.91,14.26-60.21,42.82-68.66,28.56-8.45,60.63,3.26,81.31,24.69,20.68,21.43,31.11,51.11,34.45,80.71,2.33,20.65,1.56,41.94,8.12,61.67,14.48,43.6,63.15,69.21,109.09,68.36,22.09-.41,44.87-6.33,61.43-20.97,20.92-18.5,28.63-47.35,35.31-74.46,4.57-18.52,9.14-37.05,13.71-55.57,9.02-36.59,18.47-74.12,40.14-104.94S857.89-4.93,895.12.91c20.33,3.19,40.7,17.37,43.45,37.77,2.79,20.64-12.79,39.25-29.6,51.54-16.81,12.29-36.42,21.86-48.49,38.82-7.26,10.2-11.21,22.33-14.88,34.3-9.71,31.72-18.21,64.63-15.48,97.69,2.73,33.06,18.57,66.71,47.49,82.98,28.91,16.27,71.15,9.24,87.38-19.7,10.8-19.27,8.46-43.89-1.43-63.64s-26.41-35.36-43.72-49.08c-7.04-5.58-14.59-11.33-17.97-19.65-4.19-10.31-.9-22.3,4.94-31.77,12.45-20.19,36.48-32.36,60.17-31.39s46.29,14.64,58.97,34.68c17.63,27.86,15.76,63.19,16.21,96.16.44,32.96,5.87,69.85,32.05,89.89,24.57,18.81,62.42,15.17,85.36-5.59,22.94-20.76,30.79-55.43,22.52-85.25-7.06-25.46-24.11-46.75-36.55-70.05-12.44-23.3-20.12-52.39-7.56-75.63,10.69-19.78,32.99-29.89,54-37.92,4.73-1.81,9.57-3.6,14.63-3.77,18.26-.62,30.68,20.19,30.13,38.46-.55,18.26-9.47,35.09-14.19,52.75-15.59,58.37,22.77,125.68,80.93,142.01"/></svg>