<?xml version="1.0" encoding="UTF-8"?><svg id="Layer_2" xmlns="http://www.w3.org/2000/svg" width="636.74" height="701.42" xmlns:xlink="http://www.w3.org/1999/xlink" viewBox="0 0 636.74 701.42"><defs><style>.cls-1{fill:url(#linear-gradient);}</style><linearGradient id="linear-gradient" x1="0" y1="350.71" x2="636.74" y2="350.71" gradientUnits="userSpaceOnUse"><stop offset="0" stop-color="#3f4b7f"/><stop offset=".22" stop-color="#544f78"/><stop offset=".74" stop-color="#82586a"/><stop offset="1" stop-color="#945c65"/></linearGradient></defs><path class="cls-1" d="M505.89,297.53c10.34-22.97,21.71-28.54,40.25-32.58,8.84-1.93,18.1-.16,26.87-2.19,27.74-6.41,44.05-25.16,55.57-53.35,4.52-11.07,11.37-21.15,6.46-31.75-4.91-10.6-17.01-17.86-28.01-14.3-11.23,3.63-17.25,16.01-23.68,26.32-11.97,19.21-30.12,35.03-51.34,40.45-21.22,5.43-45.33-.9-58.72-18.31-14.12-18.36-14.33-44.39-12.56-68.21,1.77-23.82,4.69-48.96-4.85-70.35-9.54-21.4-37.3-35.49-56.02-21.21-11.01,8.4-15.23,23.49-16.14,37.5-.6,9.28-.05,18.77,3.13,27.36,5.15,13.91,16.55,24.04,24.09,36.66,7.54,12.62,10.06,31.45-1.11,41.33-8.96,7.93-22.28,6.18-33.19,2.4-17.84-6.18-34.96-17.42-43.16-34.97-10.89-23.29-3.89-51.24.06-77.22,3.96-25.98,2.47-57.14-18.33-71.28-21.95-14.92-57.39,4.25-58.96,31.89-1.3,22.97,16.47,42.87,15.9,65.85-.48,19.27-15.78,37.4-34.13,40.44-17.22,2.85-34.13-6.5-46.11-19.23-11.98-12.73-20.23-28.69-29.98-43.35C137.07,52.05,101.57,22.57,60.91,5.53,52.58,2.04,43.66-.98,34.65.3,13.64,3.27.95,29.99,6.06,51.17c5.11,21.19,22.88,36.38,41.87,45.47,18.99,9.09,39.84,13.53,59.16,21.86,17.83,7.69,35.63,20.7,39.58,40.45,3.95,19.75-14.88,43.85-33.02,36.96-6.97-2.65-12.23-9.05-19.44-11-15.95-4.31-30.03,19.06-22.48,34.23,7.55,15.16,27.92,19.06,43.52,12.7,4.45-1.81,9.19-4.33,13.68-2.91,7.22,2.29,8.1,12.8,5.46,20.3-6.8,19.34-29.16,31.41-47.87,25.83-13.82-4.12-24.4-16.08-38.29-19.97-19.89-5.57-43.33,9.69-47.55,30.95-4.22,21.27,11.69,43.89,32.29,45.9,21.57,2.1,42.67-15.22,63.94-11.22,3.23.61,6.54,1.83,8.59,4.46,2.49,3.2,2.6,7.75,2.15,11.91-1.38,12.54-7.12,24.63-15.91,33.52-11.2,11.33-26.4,17.01-39.4,25.98-12.99,8.98-24.66,24.23-21.5,39.82,3.25,16.06,21.91,24.49,37.39,20.44,15.47-4.05,27.51-17.32,35.62-31.73,7.66-13.62,16.24-31.26,31.21-31.02,9.41,16.72,6.49,38.56-1.23,56.68-7.72,18.12-19.71,33.98-28.84,51.42-9.84,18.79-16.26,39.22-21.84,59.72-4.62,16.98-7.81,37.72,4.24,49.58,13.32,13.11,37.28,5.01,48.41-10.81s13.25-36.18,16.03-55.39c2.78-19.21,7.42-39.81,21.61-52.73,14.19-12.92,40.62-11.84,46.94,6.17,2.18,6.23,1.63,13.17,1.13,19.86-.98,13.39-1.53,27.21,2.85,39.68,4.38,12.47,14.85,23.36,27.69,23.94,18.13.82,31.85-17.9,38.46-35.71,6.62-17.81,10.48-37.94,24.07-50.9,3.49-3.33,7.79-6.13,12.46-6.29,5.47-.19,10.35,3.27,14.15,7.25,19.22,20.18,18.06,55.18,3.42,80.07-14.64,24.89-39.72,41.23-65.27,53.09-11.26,5.23-23.09,9.99-32.07,18.85-8.98,8.86-14.36,23.25-9.06,34.54,2.63,5.61,7.52,9.72,12.84,12.6,22.01,11.94,50.55,3.88,70.4-12.71,19.85-16.59,32.91-40.18,45.48-63.17,15.7-28.71,31.54-57.76,40.55-89.28,3.66-12.8,6.27-26.2,13.18-37.53,6.91-11.33,19.62-20.29,32.02-17.66,13.3,2.83,20.9,17.39,23.71,31.21,2.81,13.83,2.57,20.03,13.58,28.61,10.99,8.56,36.62,7.99,44.96-10.39s7.23-34.88-4.53-50.49c-10.18-13.51-12.76-16.87-23.19-30.16-10.43-13.3-13.93-35.96-.45-46.65,10.92-8.65,26.18-4.61,39.56-7.14,7.94-1.5,15.32-5.41,22.35-9.66,11.05-6.69,23.08-18.1,19.76-30.69-3.26-12.37-18.83-15.32-31.16-13.52-12.34,1.8-25.79,5.88-36.46-.4-11.96-7.04-17.5-26.36-15.27-37.84"/></svg>