<?xml version="1.0" encoding="UTF-8"?><svg id="Layer_2" xmlns="http://www.w3.org/2000/svg" width="40" height="40" viewBox="0 0 40 40"><defs><style>.cls-1{fill:none;stroke:#3f4b7f;stroke-linejoin:round;}.cls-2{fill:#3f4b7f;}</style></defs><rect class="cls-1" x=".5" y=".5" width="39" height="39" rx="5.4" ry="5.4"/><circle class="cls-2" cx="24.5" cy="20.5" r="4.5"/><path class="cls-2" d="M20,29.5c0,2.49-2.01,4.5-4.5,4.5s-4.5-2.01-4.5-4.5,2.01-4.5,4.5-4.5q4.5,0,4.5,4.5Z"/><path class="cls-2" d="M20,16.24v8.76s-9,1.24-9-4.38,9-4.38,9-4.38Z"/><path class="cls-2" d="M20,7.36v8.76s-9,1.24-9-4.38,9-4.38,9-4.38Z"/><path class="cls-2" d="M20,15.98V7.5c0-.08.06-.15.14-.16,1.14-.13,8.86-.81,8.86,4.4s-7.72,4.53-8.86,4.4c-.08,0-.14-.08-.14-.16Z"/></svg>