<svg width="25" height="25" viewBox="0 0 25 25" fill="none" xmlns="http://www.w3.org/2000/svg">
<path d="M16.2121 8.35507C17.8034 8.35507 19.3295 8.98721 20.4547 10.1124C21.58 11.2376 22.2121 12.7638 22.2121 14.3551V21.3551H18.2121V14.3551C18.2121 13.8246 18.0014 13.3159 17.6263 12.9409C17.2512 12.5658 16.7425 12.3551 16.2121 12.3551C15.6817 12.3551 15.173 12.5658 14.7979 12.9409C14.4228 13.3159 14.2121 13.8246 14.2121 14.3551V21.3551H10.2121V14.3551C10.2121 12.7638 10.8442 11.2376 11.9695 10.1124C13.0947 8.98721 14.6208 8.35507 16.2121 8.35507Z" stroke="black" stroke-width="2" stroke-linecap="round" stroke-linejoin="round"/>
<path d="M6.2121 9.35507H2.2121V21.3551H6.2121V9.35507Z" stroke="black" stroke-width="2" stroke-linecap="round" stroke-linejoin="round"/>
<path d="M4.2121 6.35507C5.31667 6.35507 6.2121 5.45964 6.2121 4.35507C6.2121 3.2505 5.31667 2.35507 4.2121 2.35507C3.10753 2.35507 2.2121 3.2505 2.2121 4.35507C2.2121 5.45964 3.10753 6.35507 4.2121 6.35507Z" stroke="black" stroke-width="2" stroke-linecap="round" stroke-linejoin="round"/>
</svg>
