<?xml version="1.0" encoding="UTF-8"?><svg id="Layer_2" xmlns="http://www.w3.org/2000/svg" width="40" height="40" viewBox="0 0 40 40"><defs><style>.cls-1{fill:none;stroke-linejoin:round;}.cls-1,.cls-2{stroke:#3f4b7f;}.cls-2{fill:#3f4b7f;}</style></defs><rect class="cls-1" x=".5" y=".5" width="39" height="39" rx="5.4" ry="5.4"/><path class="cls-2" d="M15.97,11.07c0,1.02-.75,1.82-1.96,1.82s-1.91-.81-1.9-1.82c0-1.04.76-1.83,1.93-1.83s1.92.78,1.93,1.83ZM12.21,26.08v-11.75h3.66v11.75h-3.66Z"/><path class="cls-2" d="M18.79,18.08c0-1.46-.05-2.7-.1-3.75h3.17l.17,1.63h.08c.47-.76,1.67-1.89,3.63-1.89,2.4,0,4.2,1.6,4.2,5.06v6.95h-3.66v-6.51c0-1.51-.54-2.55-1.86-2.55-1,0-1.6.7-1.85,1.38-.09.23-.13.58-.13.9v6.78h-3.66v-8Z"/></svg>