<?xml version="1.0" encoding="UTF-8"?><svg id="Layer_2" xmlns="http://www.w3.org/2000/svg" width="200" height="155" xmlns:xlink="http://www.w3.org/1999/xlink" viewBox="0 0 200 155"><defs><style>.cls-1{fill:url(#linear-gradient);}</style><linearGradient id="linear-gradient" x1="105.35" y1="149.62" x2="106.5" y2="19.07" gradientUnits="userSpaceOnUse"><stop offset="0" stop-color="#3f4b7f"/><stop offset=".18" stop-color="#454c7c"/><stop offset=".43" stop-color="#585077"/><stop offset=".73" stop-color="#77566d"/><stop offset=".96" stop-color="#945c65"/></linearGradient></defs><path class="cls-1" d="M170.5,100.71c-1-8.01-3.65-15.99-8.79-22.22-5.14-6.22-12.99-10.48-21.06-10.1-2.49.12-5.01.66-7.43-.43-1.01-.45-1.86-1.26-2.25-2.29-1.25-3.25,2.21-5.77,4.62-8.03,6.69-6.26,6.74-18.23.1-24.54-4.08-3.88-9.93-5.49-15.57-5.43-5.63.06-11.14,1.65-16.48,3.43-.72.24-1.48.51-1.97,1.1-.44.53-.6,1.24-.67,1.92-.57,5.83,4.18,10.87,5.04,16.67.62,4.17-.82,8.34-1.13,12.54-.7,9.43,4.46,18.54,11.48,24.88,2.61,2.36,5.51,4.44,7.77,7.14,1.9,2.26,3.3,4.88,4.53,7.56,1.36,2.95,2.56,6.19,1.4,9.41-.68,1.89-2.3,3.38-4.31,3.54-3.24.24-5.23-2.93-6.28-5.82-1.13-3.12-1.85-6.4-3.23-9.41-3.73-8.12-11.77-13.3-17.22-20.38-5.92-7.69-8.63-17.77-7.39-27.39.66-5.13,2.4-10.28,1.47-15.37-.21-1.13-.59-2.3-1.47-3.03-.8-.66-1.89-.85-2.92-.9-4.25-.23-8.42,1.42-11.45,4.41-8.67,8.56-14.67,19.17-20.6,29.7-3.33,5.91-6.72,12-7.61,18.73-.77,5.86.43,11.79.53,17.7s-1.19,12.37-5.73,16.16c-.42.35-1.89,1.75-2.89,3.75-1.06,2.12-.52,5.06-.41,6.15.1,1.05.27,2.09.5,3.11,2.49,5.41,9.21,8.36,15.15,7.28,6.31-1.14,11.5-6.06,14.23-11.86s3.3-12.4,3.04-18.81c-.15-3.79-.57-7.68.57-11.29s4.37-6.92,8.15-6.69c1.85.11,3.54,1.03,5.1,2.02,1.84,1.17,3.62,2.5,4.93,4.24,3.85,5.08,2.91,12.22,1.46,18.43s-3.19,12.95-.52,18.74c1.99,4.31,6.19,7.29,10.7,8.78,4.51,1.48,9.34,1.64,14.08,1.58,10.08-.12,20.34-1.2,29.62-5.14,9.28-3.94,17.57-11.05,21.15-20.48,2.32-6.12,2.57-12.87,1.76-19.37ZM82.76,70.51c-1.72,3.21-5.38,5.29-8.96,3.97-4.42-1.64-4.91-6.78-3.09-10.52.56-1.15,1.33-2.13,2.06-3.16.14-.6.37-1.16.7-1.67-.09-.59-.26-1.2-.27-1.75-.12-6.45,9.88-6.43,10,0,.02,1.09.32,2.29.22,3.47-.06.78-.24,1.52-.5,2.24.63,2.48,1.21,4.87-.17,7.43ZM129.54,44.85c-.21,1.92-.3,3.73-1.52,5.31-3.32,4.29-9.46,1.67-11.26-2.6-.46-1.09-.64-2.23-.77-3.39-2-1.13-3.02-3.31-2.48-5.69.46-2.02,2.52-3.56,4.59-3.69,1.3-.36,3.88.48,3.89.49.23.02.48.11.69.14.48.08.95.13,1.42.28,1.88.6,3.39,1.81,4.39,3.51,1.02,1.71,1.25,3.69,1.04,5.63ZM157.04,99.28c-.63,3.84-4.24,7.35-8.26,4.99-2.73-1.6-2.41-4.87-4.35-6.72-2-1.9-5.77-1.96-8.15-3.42-5.43-3.33-9.44-13.67-.7-15.76.91-.22,1.74-.19,2.49,0,7.67-.75,15.48,1.77,18.03,9.79,1.06,3.31,1.52,7.68.95,11.11Z"/></svg>