<?xml version="1.0" encoding="UTF-8"?><svg id="Layer_2" xmlns="http://www.w3.org/2000/svg" width="40" height="40" viewBox="0 0 40 40"><defs><style>.cls-1{stroke-linejoin:round;}.cls-1,.cls-2{fill:none;stroke:#3f4b7f;}.cls-2{stroke-miterlimit:10;stroke-width:.5px;}.cls-3{fill:#3f4b7f;}</style></defs><rect class="cls-1" x=".5" y=".5" width="39" height="39" rx="5.4" ry="5.4"/><path class="cls-3" d="M9,31v-15.83l11.5,7.91,11.5-8.09v16s2.01,0,3-2c.99-2.01-.09-18.11,0-18-.14.16-.2-1.76-2-1-2.91,1.23-12.5,8.6-12.5,8.6l-12.5-8.6c-.18-.31-2.01.12-2,1,0,1,0,18,0,18,0,0,0,2,3,2Z"/><line class="cls-2" x1="20.5" y1="23" x2="32.5" y2="30.5"/><path class="cls-2" d="M8.5,30.5c2-1,12-7.41,12-7.41"/><line class="cls-2" x1="8.5" y1="30.5" x2="33" y2="30.5"/><line class="cls-2" x1="7.86" y1="10.35" x2="34" y2="10.5"/></svg>