<?xml version="1.0" encoding="UTF-8"?><svg id="Layer_2" xmlns="http://www.w3.org/2000/svg" width="40" height="40" viewBox="0 0 40 40"><defs><style>.cls-1{fill:none;stroke-linejoin:round;}.cls-1,.cls-2{stroke:#3f4b7f;}.cls-2{fill:#3f4b7f;}</style></defs><rect class="cls-1" x=".5" y=".5" width="39" height="39" rx="5.4" ry="5.4"/><path class="cls-2" d="M10.92,12.11c1.01-.18,2.33-.32,4.02-.32,2.05,0,3.57.47,4.53,1.34.88.77,1.42,1.95,1.42,3.39s-.44,2.62-1.26,3.46c-1.11,1.18-2.9,1.77-4.94,1.77-.63,0-1.21-.02-1.69-.15v6.49h-2.09v-15.98ZM13,19.9c.46.13,1.05.18,1.73.18,2.53,0,4.06-1.24,4.06-3.45s-1.53-3.19-3.82-3.19c-.92,0-1.61.09-1.98.17v6.3Z"/><path class="cls-2" d="M22.8,25.94c.64.4,1.75.83,2.8.83,1.54,0,2.26-.76,2.26-1.73s-.61-1.55-2.16-2.12c-2.1-.76-3.09-1.9-3.08-3.29,0-1.87,1.52-3.4,4.02-3.4,1.18,0,2.2.32,2.84.71l-.52,1.53c-.45-.28-1.3-.68-2.38-.68-1.25,0-1.92.72-1.92,1.59,0,.96.68,1.39,2.2,1.98,2,.75,3.04,1.75,3.05,3.49,0,2.06-1.6,3.5-4.34,3.5-1.27,0-2.45-.33-3.26-.81l.51-1.59Z"/></svg>