<?xml version="1.0" encoding="UTF-8"?><svg id="Layer_1" xmlns="http://www.w3.org/2000/svg" width="1203.07" height="302.54" viewBox="0 0 1203.07 302.54"><defs><style>.cls-1{fill:#c1c4e3;}</style></defs><path class="cls-1" d="M1202.96-.53H-.04L0,138.24c19.13-6.88,37.43,14.35,40.87,34.38s-.78,41.45,6.69,60.35c7.47,18.91,36.02,31.01,47.61,14.31,10.74-15.49-4.37-35.09-10.2-53.01-9.47-29.09,13.67-64.92,44.26-65.44,30.59-.52,54.81,38.59,38.5,64.47-3.09,4.9-7.31,9.28-8.83,14.88-4.37,16.13,19.32,28.64,33.57,19.92,14.25-8.73,17.71-28.4,14.37-44.77-1.98-9.7-5.83-19.49-3.9-29.2,3.96-19.91,31.83-27.24,49.18-16.69s24.92,32.03,26.58,52.27c1.03,12.49.32,25.22,3.2,37.42,2.88,12.2,10.33,24.31,22.2,28.36,11.86,4.05,27.54-3.83,27.9-16.36.14-4.8-1.82-9.4-4.08-13.63-8.32-15.56-21.08-28.48-28.81-44.34-7.73-15.86-8.99-37.27,4.07-49.15,17.06-15.52,44.84-4.48,61.98,10.95,7.56,6.8,14.99,16.05,13.07,26.04-2.45,12.77-18.72,19.06-21.68,31.72-3.25,13.9,13.5,26.24,27.43,23.11s23.43-16.34,28-29.86,5.53-28.02,9.74-41.66c4.21-13.63,12.88-27.21,26.52-31.43,11.01-3.4,22.87-.05,33.77,3.69,37.59,12.9,78.54,37.39,82.01,76.97,1.25,14.23-2.76,28.56-1.25,42.76,1.51,14.2,11.86,29.53,26.11,28.6,15.25-1,23.21-19.94,20.58-35-1.46-8.33-4.97-16.13-7.71-24.12-9.17-26.7-9.18-58.1,6.86-81.34,16.04-23.24,50.67-34.06,74.15-18.39,23.48,15.67,22.86,58.45-3.39,68.86-9.51,3.77-20.24,3.11-30.01,6.17s-19.19,12.67-16.04,22.41c3.08,9.52,15.34,11.97,25.34,11.66,38.33-1.19,75.77-19.92,99.71-49.88,14.29-17.89,24.37-39.88,43.14-53,18.76-13.12,51.19-10.63,57.68,11.32,4.06,13.74-3.32,30.63,5.61,41.84,8.1,10.18,27.62,5.87,30.68-6.77,1.63-6.72-.81-13.87.43-20.67,3.56-19.5,33.94-20.72,47.74-6.49,13.8,14.23,16.73,35.37,23.29,54.07,9.3,26.54,27.25,49.98,50.44,65.89,9.5,6.51,20.75,11.95,32.13,10.21,11.38-1.75,21.63-13.5,17.97-24.42-3.61-10.78-16.82-14.01-27.44-18.07-29.49-11.27-50.25-42.25-49.46-73.82.49-19.81,10.83-41.01,29.64-47.24,18.81-6.23,43.16,10.83,38.42,30.08-4.21,17.06-27.2,30.68-19.51,46.48,4.03,8.27,14.99,10.7,24.01,8.96,18.89-3.65,33.54-22.62,32.29-41.82-.96-14.86-10.02-30.31-3.53-43.71,8.27-17.08,36.37-13.62,46.95,2.14s8.36,36.66,4.09,55.15c-4.07,17.62-9.62,36.2-3.88,53.35,5.74,17.15,29.05,29.24,42.39,17.03,8.21-7.51,8.74-20.55,5.21-31.11-3.53-10.55-10.3-19.68-15.1-29.72-6.71-14.03-9.43-30.64-4.07-45.24,5.36-14.6,20.08-26.2,35.58-24.88l-.12-103.35"/><path class="cls-1" d="M880.88,212.5c-.5,6.63-9.8,10.68-11.38,17.14-1.22,4.97.84,10.19,3.63,14.48,1.36,2.1,3.16,4.24,5.64,4.56,1.82.24,3.6-.56,5.26-1.34,6.84-3.21,14.5-7.43,15.95-14.84,1.56-7.99-5.17-15.33-12.44-18.99-2.15-1.08-4.69-1.99-6.92-1.06"/><path class="cls-1" d="M879.38,212.5c-.27,2.86-2.5,5.15-4.4,7.11-2.13,2.21-4.5,4.37-5.94,7.11-1.78,3.39-1.69,7.42-.61,11.01s3.15,7.8,6.04,10.39c1.39,1.25,3.08,2.1,4.98,2.1,2.13,0,4.1-.99,5.98-1.89,3.23-1.54,6.41-3.23,9.24-5.44s4.98-4.74,6.2-7.99,1.04-7.12-.33-10.42c-1.61-3.88-4.52-7.04-7.84-9.54s-8.19-5.51-12.46-3.94c-1.8.66-1.02,3.56.8,2.89,3.27-1.2,7.12,1.44,9.68,3.29s4.93,4.3,6.45,7.15,1.97,5.81,1.13,8.78-2.79,5.21-5.05,7.09-5.12,3.46-7.87,4.82c-1.58.78-3.23,1.74-4.98,2.08s-3.26-.48-4.47-1.79c-2.34-2.53-4.08-6.09-4.88-9.43-.75-3.13-.47-6.26,1.36-8.94,3.31-4.86,9.38-8.09,9.98-14.47.18-1.92-2.82-1.91-3,0h0Z"/><path class="cls-1" d="M785.88,199.5c.11,9.52,1.82,16.55,1.59,26.07-.07,3.03-.17,6.12-1.15,8.98-2.29,6.67-9.78,11.11-16.73,9.93s-12.55-7.84-12.52-14.89c.04-8.06,6.36-14.63,12.77-19.52,5.03-3.84,10.4-7.26,16.01-10.18"/><path class="cls-1" d="M784.38,199.5c.12,8.24,1.64,16.39,1.61,24.64-.01,3.96.03,8.31-1.95,11.86-1.55,2.77-4.12,4.97-7.06,6.16-6.31,2.54-13.21-.14-16.58-5.97-3.77-6.53-.95-13.72,3.73-18.92,2.89-3.21,6.32-5.88,9.84-8.36,4.04-2.85,8.27-5.42,12.65-7.72,1.71-.9.2-3.49-1.51-2.59-4.24,2.22-8.35,4.7-12.27,7.45-3.53,2.47-7.02,5.1-10.01,8.22-5.43,5.67-9.25,13.6-6.02,21.37,2.86,6.9,9.99,11.45,17.49,10.35,3.61-.53,7.04-2.31,9.62-4.88,2.89-2.88,4.31-6.52,4.79-10.52,1.23-10.36-1.16-20.72-1.31-31.08-.03-1.93-3.03-1.93-3,0h0Z"/><path class="cls-1" d="M497.97,182.52c6.65,1.31,13.64,2.78,18.76,7.22,4.06,3.53,6.48,8.56,8.33,13.61,2.49,6.77,4.1,14.55.9,21.02-2.63,5.32-8.5,8.86-14.43,8.71s-11.61-3.99-13.97-9.43c-1.32-3.05-1.64-6.44-1.86-9.75-.61-8.95-.71-17.93-.29-26.89.06-1.26.15-2.59.89-3.61s2.35-1.5,3.27-.64"/><path class="cls-1" d="M497.57,183.97c8.08,1.59,16.54,3.51,21.53,10.68,2.43,3.49,4.06,7.51,5.35,11.53s2.2,8.37,1.64,12.62c-1.02,7.72-8.21,13.88-16.14,12.65-3.58-.55-6.88-2.51-9.15-5.32-2.8-3.46-3.3-7.95-3.6-12.23-.38-5.45-.56-10.91-.55-16.38,0-2.77.06-5.54.16-8.31.05-1.21,0-2.5.23-3.69.06-.33.72-2.27,1.46-1.7.64.5,1.49.62,2.12,0,.52-.51.64-1.63,0-2.12-1.71-1.33-4-1.04-5.39.64-1.53,1.85-1.34,4.62-1.42,6.87-.22,5.78-.22,11.58,0,17.36.2,5.31.09,11.13,1.82,16.21,1.41,4.14,4.36,7.63,8.22,9.71,7.99,4.31,18.23,1.43,22.88-6.38,5.14-8.63,1.63-19.95-2.36-28.31-2.34-4.9-5.72-9.19-10.5-11.88s-10.19-3.8-15.49-4.84c-1.89-.37-2.69,2.52-.8,2.89h0Z"/><path class="cls-1" d="M408.36,253.65c5.04,8.06,6.78,18.12,4.73,27.41-.3,1.34-.71,2.74-1.71,3.69-.77.73-1.79,1.1-2.79,1.46-3.38,1.21-6.82,2.42-10.4,2.58s-7.4-.93-9.74-3.65c-2.03-2.36-2.68-5.57-3.26-8.62-.76-3.99-1.52-8.04-1.15-12.09s2.06-8.15,5.33-10.56c1.44-1.06,3.12-1.74,4.8-2.38,3.99-1.51,8.45-2.8,12.46-1.33s9,19.07,6.25,22.34"/><path class="cls-1" d="M407.07,254.41c4.85,7.85,6.73,17.79,4.45,26.8-.24.96-.55,1.96-1.35,2.6-.92.73-2.2,1.03-3.29,1.41-2.51.88-5.09,1.74-7.75,1.99-4.2.4-8.67-.86-10.7-4.84-1.06-2.08-1.44-4.47-1.87-6.74-.51-2.66-.99-5.34-1.08-8.06-.15-4.34.83-9.07,4.23-12.05,1.82-1.6,4.29-2.43,6.55-3.2,2.38-.81,4.88-1.47,7.41-1.29.59.04,1.16.15,1.73.3.38.1.81.27.81.27.23.13.44.32.76.69.67.78,1.23,1.83,1.7,2.8,1.45,2.97,2.4,6.24,3.03,9.48.29,1.48.49,2.97.49,4.48,0,.5-.03,1.15-.1,1.5-.05.26-.13.5-.2.75.09-.3-.3.45-.05.13-1.18,1.5.92,3.64,2.12,2.12,1.72-2.17,1.3-5.39.94-7.95-.5-3.52-1.49-7.01-2.86-10.29-.99-2.35-2.32-5.55-4.88-6.56-5.15-2.04-11.5.22-16.21,2.46s-7.51,6.89-8.24,12.04c-.42,2.95-.2,5.9.22,8.83s.9,5.96,1.75,8.8c.71,2.39,1.86,4.69,3.79,6.33s4.16,2.51,6.55,2.86c2.75.41,5.51.1,8.19-.58,1.36-.34,2.7-.78,4.03-1.24s2.88-.89,4.13-1.65c2.54-1.54,3.14-4.51,3.58-7.23.48-3.03.63-6.11.38-9.18-.5-6.14-2.42-12.09-5.65-17.33-1.01-1.64-3.61-.13-2.59,1.51h0Z"/><path class="cls-1" d="M1082.88,237.5c8.07-.32,16.56-5.82,21.74-12.02s8.19-13.97,9.89-21.87c1.08-5.01.94-11.55-3.73-13.66-2.31-1.04-5.03-.55-7.36.45-6.21,2.67-10.47,8.55-13.35,14.66s-4.72,12.69-7.85,18.68c-1.25,2.4-2.74,4.78-3.02,7.48s1.14,5.81,3.8,6.35"/><path class="cls-1" d="M1082.88,239c9.11-.45,17.76-6.13,23.34-13.12,3-3.76,5.27-7.99,6.98-12.47,1.6-4.17,2.97-8.69,3.3-13.17.26-3.51-.23-7.65-2.93-10.19-3.45-3.26-8.46-2.32-12.28-.29-8.33,4.42-12.38,13.55-15.59,21.91-1.08,2.82-2.12,5.66-3.37,8.41-1.14,2.53-2.64,4.9-3.69,7.47-.9,2.21-1.33,4.67-.55,6.99.72,2.13,2.26,3.91,4.51,4.46,1.87.46,2.67-2.43.8-2.89-4.09-1.01-2.57-6.41-1.29-8.96,2.04-4.06,3.95-8.07,5.58-12.32,2.87-7.48,5.82-15.7,12.42-20.76,2.76-2.12,7.37-4.58,10.72-2.4,2.57,1.67,2.85,5.3,2.7,8.06-.2,3.82-1.39,7.68-2.64,11.27-1.38,3.95-3.23,7.75-5.64,11.18-5,7.12-13.44,13.36-22.38,13.81-1.92.1-1.93,3.1,0,3h0Z"/><path class="cls-1" d="M930.92,186.71c6.74-.44,13.11,5.87,12.74,12.61-.22,4-3.96,8.32-7.69,6.84-2.07-.82-3.17-3.05-3.85-5.16-1.37-4.26-2.85-10.07-2.24-14.5"/><path class="cls-1" d="M930.92,188.21c5.86-.3,11.42,4.9,11.25,10.84-.07,2.38-1.92,5.94-4.69,5.91-3.08-.03-3.99-4.44-4.64-6.71-1.08-3.78-1.97-7.8-1.47-11.76.1-.81-.76-1.5-1.5-1.5-.9,0-1.4.69-1.5,1.5-.54,4.29.48,8.76,1.67,12.86,1.04,3.6,2.58,8.12,6.94,8.57,3.91.41,7.08-3.36,7.92-6.84.91-3.77-.49-7.76-2.87-10.7-2.67-3.29-6.84-5.4-11.11-5.18-1.92.1-1.93,3.1,0,3h0Z"/><path class="cls-1" d="M229.88,189.5c2.47,4.41,3.55,6,6.02,10.41,4.24,7.56,8.58,15.45,9.17,24.1.28,4.15-.31,8.31-1.14,12.39-1.3,6.45-3.33,13.07-7.99,17.71s-12.62,6.53-17.91,2.64c-3.35-2.46-5.02-6.72-5.3-10.87s.64-8.28,1.55-12.34c1.19-5.29,2.44-10.72,5.48-15.22,2.78-4.12,6.91-7.24,9.43-11.52,3.41-5.8,3.32-13.47-.22-19.19"/><path class="cls-1" d="M228.58,190.26c2.51,4.46,5.17,8.83,7.64,13.31,2.73,4.97,5.32,10.1,6.61,15.65,1.37,5.86.73,11.75-.5,17.57-1.06,5.02-2.57,10.17-5.72,14.31-2.8,3.67-7.11,6.24-11.81,6.25s-8.46-3.22-9.87-7.75c-1.74-5.61-.14-11.59,1.13-17.12s2.71-10.74,6.25-15.08,8.21-8.22,9.98-13.98.94-11.64-2.03-16.56c-1-1.65-3.59-.15-2.59,1.51,2.8,4.65,3.3,10.5,1.27,15.55s-7.05,8.73-10.25,13.31-4.62,10.42-5.86,15.92c-1.32,5.84-2.67,12.15-.56,17.98,1.72,4.77,5.47,8.41,10.6,9.1,4.8.64,9.73-1.19,13.35-4.32,4.11-3.56,6.47-8.84,7.93-13.97,1.65-5.79,2.86-12.1,2.4-18.14-.51-6.68-3.11-12.92-6.17-18.8-2.88-5.53-6.16-10.82-9.21-16.25-.95-1.68-3.54-.17-2.59,1.51h0Z"/><path class="cls-1" d="M53.48,273.46c5.07,1.17,10.37-.29,15.56.01s11.09,3.62,11.01,8.82c-.03,2.02-1,3.93-2.3,5.47-3.76,4.47-10.57,6.05-15.91,3.69-5.34-2.36-9.72-12.16-8.96-17.95"/><path class="cls-1" d="M53.08,274.9c2.93.63,5.87.55,8.84.33,2.74-.2,5.62-.59,8.36-.13,3.56.6,8.37,2.95,8.27,7.18-.11,4.79-5.49,8.1-9.75,8.65s-7.99-1.07-10.48-4.57-4.47-8.4-3.95-12.87c.23-1.91-2.78-1.9-3,0-.56,4.73,1.41,9.95,3.98,13.83,1.26,1.9,2.81,3.71,4.77,4.91,2.17,1.33,4.91,1.86,7.43,1.79,5.39-.16,10.97-3.18,13.19-8.26s-.93-10.16-5.77-12.34c-6.82-3.07-14.07.08-21.1-1.43-1.88-.4-2.69,2.49-.8,2.89h0Z"/><path class="cls-1" d="M123.88,186.5c1.35-2.86-1.25-7.19-3.38-9.53s-5.7-3.23-8.68-2.16c-2.87,1.03-4.9,3.59-6.4,6.24-1.02,1.81-1.89,3.81-1.81,5.88.13,3.52,3.01,6.45,6.28,7.75s6.89,1.29,10.41,1.27c1.21,0,2.55-.06,3.43-.9.59-.57.86-1.39,1.04-2.19.86-3.79.31-7.88-1.54-11.3"/><path class="cls-1" d="M125.17,187.26c1.07-2.48.4-5.02-.79-7.33s-2.82-4.51-5.02-5.77-5.13-1.69-7.64-.9c-2.69.84-4.76,2.83-6.36,5.08-1.68,2.36-3.21,5.26-3.25,8.22-.03,2.53,1.16,4.92,2.92,6.69,1.98,1.99,4.61,3.17,7.34,3.7,2.93.57,6.18.73,9.16.45,1.55-.15,3.01-.69,3.88-2.06s1.06-3.09,1.2-4.63c.3-3.42-.49-6.87-2.08-9.9-.9-1.71-3.49-.2-2.59,1.51,1.12,2.14,1.73,4.51,1.73,6.93,0,1.6.08,4.73-1.93,5.11-.95.18-1.99.09-2.95.09-1.26,0-2.53-.03-3.78-.14-2.29-.21-4.58-.77-6.5-2.06-1.49-1-2.76-2.49-3.22-4.25-.58-2.22.44-4.45,1.52-6.34,1.96-3.41,5.14-6.71,9.43-5.57,2.16.57,3.59,2.15,4.76,3.97.94,1.45,2.37,3.88,1.59,5.68-.32.75-.22,1.6.54,2.05.63.38,1.73.2,2.05-.54h0Z"/></svg>