<svg width="1889" height="1251" viewBox="0 0 1889 1251" fill="none" xmlns="http://www.w3.org/2000/svg">
<path d="M1473.69 1061.07C1512.68 1065.2 1555.72 1037.71 1566.93 1001.46C1578.14 965.205 1555.73 925.51 1518.43 915.84C1455.04 899.411 1370.91 960.085 1322.1 920.974C1291.58 896.5 1301.91 844.454 1334.37 816.611C1366.85 788.799 1413.03 781.048 1454.94 782.751C1519.29 785.331 1580.65 807.201 1627.87 844.362C1670.5 877.921 1706.56 925.672 1764.07 931.309C1802.42 935.051 1844.44 916.639 1867.98 885.773C1891.51 854.908 1895.36 813.121 1877.48 782.52C1871.98 773.122 1864.43 764.601 1854.37 759.373C1835.92 749.837 1812.35 752.547 1790.35 753.699C1719.55 757.37 1651.33 741.898 1584.27 726.498C1560.15 720.968 1535.72 715.325 1514.52 704.099C1494.58 693.518 1478.08 678.315 1458.04 667.858C1410.15 642.829 1343.07 649.371 1296.04 683.685C1289.36 688.536 1282.93 694 1275.19 696.977C1243.13 709.293 1217.78 668.625 1230.87 638.804C1243.97 608.982 1276.3 590.261 1303.88 570C1407.39 493.885 1462.86 364.09 1440.18 250.988C1434.11 220.664 1421.13 189.617 1392.91 174.679C1351.25 152.645 1285.43 182.242 1273.78 228.247C1269.31 245.902 1271.79 264.188 1265.88 281.583C1252.6 320.589 1204.19 340.154 1161.63 349.841C1147.18 353.133 1131.15 355.791 1119.09 349.169C1100.48 338.942 1101.69 313.276 1106.8 292.487C1117.48 249.005 1136.17 206.561 1161.84 167.634C1177.2 144.355 1195.18 122.059 1205.66 96.8646C1216.13 71.6706 1217.86 42.0123 1201.5 22.0877C1184.23 1.1309 1150.87 -3.75381 1121.42 2.95247C1091.96 9.65874 1065.37 25.8841 1039.52 41.8311C1025.26 50.6068 1010.55 59.8189 1001.22 73.0942C993.284 84.3782 989.965 97.7059 988.721 110.626C985.391 145.048 995.344 178.058 1001.09 211.431C1006.84 244.804 1007.78 281.582 988.434 312.493C969.089 343.403 923.268 363.452 893.323 345.781C853.863 322.474 871.777 263.237 855.752 221.951C841.816 185.972 800.953 165.428 759.21 161.406C717.467 157.385 674.398 167.056 632.325 176.654C612.113 181.277 590.726 186.464 575.434 200.321C563.308 211.303 556.726 226.267 551.514 240.905C530.66 299.35 526.699 365.985 561.881 413.203C571.353 425.902 583.365 436.835 592.122 450.024C626.372 501.503 599.818 579.514 543.748 620.063C487.678 660.612 411.111 667.006 348.185 648.341C285.258 629.676 234.153 589.135 191.259 543.925C153.947 504.587 113.666 457.502 54.5851 458.671C37.9268 458.988 19.5004 464.406 9.33349 477.494C1.15768 488.014 -0.140111 501.51 1.39792 513.684C9.5519 578.364 81.4803 611.678 145.255 635.475C215.76 661.768 286.246 688.108 356.752 714.401C395.02 728.67 436.525 745.9 451.555 781.574C474.316 835.624 425.059 897.116 378.899 943.003C346.665 975.028 311.305 1014.24 318.874 1054.77C326.476 1095.54 377.811 1115.87 423.042 1107.7C468.274 1099.52 507.544 1070.54 542.485 1040.63C577.426 1010.72 611.311 978.09 653.587 959.005C699.232 938.416 758.376 938.244 787.965 971.893C839.276 1030.27 768.627 1133.23 807.603 1199.83C830.464 1238.83 884.383 1251.8 934.167 1250.28C1087.35 1245.61 1221.85 1140.85 1361.93 1070.9C1398.09 1052.84 1445.87 1037.9 1472.96 1062.3" fill="#8794B7"/>
</svg>
